HIERARCHY
ROOT joint_Root
{
	OFFSET 0.0 0.0 0.0
	CHANNELS 6 Xposition Yposition Zposition Zrotation Xrotation Yrotation 
	JOINT Hips
	{
		OFFSET -17.1583 93.1646 452.98
		CHANNELS 6 Xposition Yposition Zposition Zrotation Xrotation Yrotation 
		JOINT Spine
		{
			OFFSET 15.7357 0.0 0.0
			CHANNELS 6 Xposition Yposition Zposition Zrotation Xrotation Yrotation 
			JOINT Chest
			{
				OFFSET 8.98455 -0.406207 0.0
				CHANNELS 6 Xposition Yposition Zposition Zrotation Xrotation Yrotation 
				JOINT Neck
				{
					OFFSET 16.3773 0.0 0.0
					CHANNELS 6 Xposition Yposition Zposition Zrotation Xrotation Yrotation 
					JOINT Head
					{
						OFFSET 6.45672 0.0 0.0
						CHANNELS 6 Xposition Yposition Zposition Zrotation Xrotation Yrotation 
						End Site
						{
							OFFSET 0.0 0.0 0.0
						}
					}
				}
				JOINT Shoulder_L
				{
					OFFSET 12.9942 -0.242716 4.98039
					CHANNELS 6 Xposition Yposition Zposition Zrotation Xrotation Yrotation 
					JOINT UpperArm_L
					{
						OFFSET 5.34809 0.0 0.0
						CHANNELS 6 Xposition Yposition Zposition Zrotation Xrotation Yrotation 
						JOINT LowerArm_L
						{
							OFFSET 24.3286 1.87007e-05 0.0
							CHANNELS 6 Xposition Yposition Zposition Zrotation Xrotation Yrotation 
							JOINT Hand_L
							{
								OFFSET 22.2916 0.0 0.0
								CHANNELS 6 Xposition Yposition Zposition Zrotation Xrotation Yrotation 
								End Site
								{
									OFFSET 0.0 0.0 0.0
								}
							}
						}
					}
				}
				JOINT Shoulder_R
				{
					OFFSET 12.9945 -0.242716 -4.98039
					CHANNELS 6 Xposition Yposition Zposition Zrotation Xrotation Yrotation 
					JOINT UpperArm_R
					{
						OFFSET -5.34813 0.0 0.0
						CHANNELS 6 Xposition Yposition Zposition Zrotation Xrotation Yrotation 
						JOINT LowerArm_R
						{
							OFFSET -24.3289 0.000322201 0.0
							CHANNELS 6 Xposition Yposition Zposition Zrotation Xrotation Yrotation 
							JOINT Hand_R
							{
								OFFSET -22.2915 -0.000108084 0.0
								CHANNELS 6 Xposition Yposition Zposition Zrotation Xrotation Yrotation 
								End Site
								{
									OFFSET 0.0 0.0 0.0
								}
							}
						}
					}
				}
			}
		}
		JOINT UpperLeg_L
		{
			OFFSET -2.19248 -6.46944 0.0
			CHANNELS 6 Xposition Yposition Zposition Zrotation Xrotation Yrotation 
			JOINT LowerLeg_L
			{
				OFFSET 39.0811 0.0 -1.23785e-05
				CHANNELS 6 Xposition Yposition Zposition Zrotation Xrotation Yrotation 
				JOINT Foot_L
				{
					OFFSET 40.9854 0.0 -1.26872e-05
					CHANNELS 6 Xposition Yposition Zposition Zrotation Xrotation Yrotation 
					JOINT Toes_L
					{
						OFFSET 11.7543 0.0 0.0
						CHANNELS 6 Xposition Yposition Zposition Zrotation Xrotation Yrotation 
						End Site
						{
							OFFSET 0.0 0.0 0.0
						}
					}
				}
			}
		}
		JOINT UpperLeg_R
		{
			OFFSET -2.19251 6.46944 0.0
			CHANNELS 6 Xposition Yposition Zposition Zrotation Xrotation Yrotation 
			JOINT LowerLeg_R
			{
				OFFSET -39.0811 -0.00228153 -0.0401928
				CHANNELS 6 Xposition Yposition Zposition Zrotation Xrotation Yrotation 
				JOINT Foot_R
				{
					OFFSET -40.9854 0.0 0.0
					CHANNELS 6 Xposition Yposition Zposition Zrotation Xrotation Yrotation 
					JOINT Toes_R
					{
						OFFSET -11.7543 0.0 0.0
						CHANNELS 6 Xposition Yposition Zposition Zrotation Xrotation Yrotation 
						End Site
						{
							OFFSET 0.0 0.0 0.0
						}
					}
				}
			}
		}
	}
}
MOTION
Frames:	9
Frame Time:	0.0333333
0.000000 0.000000 0.000000 0.000000 0.000000 -0.000000 117.802000 91.934200 243.682000 -83.671400 51.540100 -179.919000 15.735700 0.000005 -0.000001 67.421500 84.840100 -65.246100 8.984550 -0.406207 -0.000000 1.848620 -4.072210 4.414030 16.377300 -0.000001 -0.000001 7.315960 16.993400 -3.057260 6.456720 -0.000001 -0.000000 10.597800 29.791900 3.853280 12.994200 -0.242716 4.980390 -92.481800 6.633610 -69.433900 5.348090 -0.000007 -0.000001 -65.116300 5.086060 -10.212500 24.328600 0.000019 0.000005 27.700500 15.084900 -63.633900 22.291600 -0.000001 0.000005 -0.406139 5.130390 4.406680 12.994500 -0.242716 -4.980390 89.209400 2.154200 -69.840300 -5.348130 -0.000001 -0.000004 -62.641800 -8.368660 24.406200 -24.328900 0.000322 -0.000009 -0.001098 19.136000 0.000086 -22.291500 -0.000108 -0.000004 0.993818 4.994340 7.439540 -2.192480 -6.469440 -0.000000 175.929000 3.332890 12.695000 39.081100 -0.000007 -0.000012 -0.002192 0.011826 10.496600 40.985400 -0.000006 -0.000013 6.170470 17.378600 -66.122400 11.754300 -0.000000 0.000003 1.431210 2.041620 -14.054200 -2.192510 6.469440 -0.000001 172.121000 -4.894500 159.842000 -39.081100 -0.002282 -0.040193 0.015237 -0.020538 30.162800 -40.985400 0.000008 0.000006 -3.282270 -19.786700 -64.946700 -11.754300 -0.000006 -0.000006 0.000584 0.157188 -10.198300
0.000000 0.000000 0.000000 0.000000 0.000000 -0.000000 121.305000 91.409600 242.233000 -84.495800 49.384700 -179.230000 15.735700 0.000005 -0.000001 64.377200 84.571400 -62.415500 8.984550 -0.406207 -0.000000 2.115680 -4.788650 4.009920 16.377300 -0.000001 -0.000001 6.339850 16.658100 -2.193300 6.456720 -0.000001 -0.000000 9.542230 29.356800 3.857330 12.994200 -0.242716 4.980390 -92.366600 6.401730 -69.662000 5.348090 -0.000007 -0.000001 -63.572600 2.510300 -10.971900 24.328600 0.000019 0.000005 25.757100 12.521300 -65.805000 22.291600 -0.000001 0.000005 1.068850 5.110930 4.859500 12.994500 -0.242716 -4.980390 89.506900 1.333090 -69.700000 -5.348130 -0.000001 -0.000004 -61.569300 -9.153870 27.260800 -24.328900 0.000322 -0.000009 -0.001096 18.580400 0.000083 -22.291500 -0.000108 -0.000004 1.310340 4.978890 7.763180 -2.192480 -6.469440 -0.000000 176.855000 2.770850 14.900900 39.081100 -0.000007 -0.000012 -0.004412 0.022744 10.977600 40.985400 -0.000006 -0.000013 6.512410 19.889300 -67.385800 11.754300 -0.000000 0.000003 2.202230 2.951060 -15.731100 -2.192510 6.469440 -0.000001 170.350000 -7.833830 161.216000 -39.081100 -0.002282 -0.040193 0.008781 -0.015161 19.802400 -40.985400 0.000008 0.000006 -5.696530 -11.832000 -67.372100 -11.754300 -0.000006 -0.000006 0.000693 0.155050 -10.285100
0.000000 0.000000 0.000000 0.000000 0.000000 -0.000000 125.034000 90.727500 240.566000 -84.871600 47.547700 -178.653000 15.735700 0.000005 -0.000001 63.719400 84.290000 -61.839300 8.984550 -0.406207 -0.000000 2.570140 -5.137460 3.873600 16.377300 -0.000001 -0.000001 5.669150 16.116300 -1.543510 6.456720 -0.000001 -0.000000 8.569170 28.733900 3.543450 12.994200 -0.242716 4.980390 -92.374100 6.564530 -70.066900 5.348090 -0.000007 -0.000001 -62.892600 -0.389641 -11.487700 24.328600 0.000019 0.000005 22.115600 10.280100 -66.291100 22.291600 -0.000001 0.000005 4.106260 5.090590 5.323370 12.994500 -0.242716 -4.980390 89.673800 0.883176 -69.727300 -5.348130 -0.000001 -0.000004 -60.326000 -10.230900 28.368400 -24.328900 0.000322 -0.000009 -0.001229 20.244200 0.000092 -22.291500 -0.000108 -0.000004 2.906160 4.901320 9.344380 -2.192480 -6.469440 -0.000000 177.855000 2.698340 16.712900 39.081100 -0.000007 -0.000012 -0.006752 0.029059 13.079000 40.985400 -0.000006 -0.000013 7.321980 21.271200 -69.189300 11.754300 -0.000000 0.000003 1.937310 2.422400 -17.032500 -2.192510 6.469440 -0.000001 169.224000 -9.608610 162.232000 -39.081100 -0.002282 -0.040193 -0.004857 0.035050 13.153000 -40.985400 0.000008 0.000006 -9.531030 -2.360140 -68.220700 -11.754300 -0.000006 -0.000006 0.000356 0.161450 -10.025300
0.000000 0.000000 0.000000 0.000000 0.000000 -0.000000 129.144000 89.990000 238.687000 -84.410000 45.597300 -178.868000 15.735700 0.000005 -0.000001 63.069100 84.166200 -61.041100 8.984550 -0.406207 -0.000000 2.745420 -5.368570 4.182840 16.377300 -0.000001 -0.000001 5.397440 15.703300 -1.170190 6.456720 -0.000001 -0.000000 8.003340 27.913800 3.212200 12.994200 -0.242716 4.980390 -92.340400 6.556730 -70.306700 5.348090 -0.000007 -0.000001 -63.585900 -2.432700 -11.302200 24.328600 0.000019 0.000005 16.457400 7.932370 -64.956700 22.291600 -0.000001 0.000005 9.730020 5.087800 5.397450 12.994500 -0.242716 -4.980390 89.647000 0.964743 -69.902500 -5.348130 -0.000001 -0.000004 -59.843200 -9.754210 28.120400 -24.328900 0.000322 -0.000009 -0.001012 22.782100 0.000106 -22.291500 -0.000108 -0.000004 4.366480 4.781560 11.661000 -2.192480 -6.469440 -0.000000 179.407000 3.349600 18.003800 39.081100 -0.000007 -0.000012 -0.007473 0.025866 16.113500 40.985400 -0.000006 -0.000013 8.236590 22.087700 -70.659800 11.754300 -0.000000 0.000003 0.425157 0.445145 -18.427500 -2.192510 6.469440 -0.000001 169.809000 -9.307480 162.438000 -39.081100 -0.002282 -0.040193 -0.016176 0.097177 11.353500 -40.985400 0.000008 0.000006 -13.014900 2.599270 -68.261000 -11.754300 -0.000006 -0.000006 0.000602 0.156834 -10.212700
0.000000 0.000000 0.000000 0.000000 0.000000 -0.000000 133.614000 89.266300 236.586000 -83.132300 43.759600 179.819000 15.735700 0.000005 -0.000001 62.118000 84.447800 -59.682900 8.984550 -0.406207 -0.000000 2.175750 -5.308130 4.969100 16.377300 -0.000001 -0.000001 5.633460 15.325500 -1.081640 6.456720 -0.000001 -0.000000 8.238870 27.052700 2.826180 12.994200 -0.242716 4.980390 -92.300900 6.465670 -70.363000 5.348090 -0.000007 -0.000001 -65.299300 -3.242780 -9.914820 24.328600 0.000019 0.000005 9.303260 4.977900 -62.083100 22.291600 -0.000001 0.000005 16.563800 5.109850 4.889910 12.994500 -0.242716 -4.980390 89.509500 1.343060 -69.933400 -5.348130 -0.000001 -0.000004 -60.168700 -7.573870 26.829300 -24.328900 0.000322 -0.000009 -0.001050 24.697900 0.000117 -22.291500 -0.000108 -0.000004 5.360750 4.730400 12.608400 -2.192480 -6.469440 -0.000000 -178.296000 4.034110 18.615300 39.081100 -0.000007 -0.000012 -0.005377 0.015291 19.371800 40.985400 -0.000006 -0.000013 9.282340 22.629600 -70.784400 11.754300 -0.000000 0.000003 -0.018742 -0.160233 -23.121100 -2.192510 6.469440 -0.000001 172.164000 -7.468550 161.352000 -39.081100 -0.002282 -0.040193 -0.025285 0.108694 14.749300 -40.985400 0.000008 0.000006 -15.158600 1.797160 -68.679700 -11.754300 -0.000006 -0.000006 0.001464 0.137637 -10.991700
0.000000 0.000000 0.000000 0.000000 0.000000 -0.000000 138.308000 88.520800 234.198000 -81.359600 41.975000 177.647000 15.735700 0.000005 -0.000001 59.671100 85.205500 -56.700000 8.984550 -0.406207 -0.000000 0.652019 -5.024810 5.969480 16.377300 -0.000001 -0.000001 6.373740 14.916100 -1.114520 6.456720 -0.000001 -0.000000 9.272450 26.403600 2.455230 12.994200 -0.242716 4.980390 -92.436200 6.822150 -70.294200 5.348090 -0.000007 -0.000001 -66.563900 -3.156660 -7.211740 24.328600 0.000019 0.000005 4.588060 2.797460 -58.689600 22.291600 -0.000001 0.000005 20.478000 5.081820 5.524330 12.994500 -0.242716 -4.980390 89.283100 1.961650 -69.920900 -5.348130 -0.000001 -0.000004 -60.461800 -5.193200 25.036700 -24.328900 0.000322 -0.000009 -0.001094 24.274200 0.000114 -22.291500 -0.000108 -0.000004 7.499380 4.788070 11.547200 -2.192480 -6.469440 -0.000000 -175.491000 4.604590 18.163100 39.081100 -0.000007 -0.000012 -0.001821 0.004230 23.293900 40.985400 -0.000006 -0.000013 9.877860 23.313500 -69.085200 11.754300 -0.000000 0.000003 -0.054313 -0.312834 -29.476700 -2.192510 6.469440 -0.000001 174.981000 -6.025780 157.105000 -39.081100 -0.002282 -0.040193 -0.001674 0.010678 25.030100 -40.985400 0.000008 0.000006 -13.021000 3.207230 -64.269100 -11.754300 -0.000006 -0.000006 0.002192 0.112800 -11.999000
0.000000 0.000000 0.000000 0.000000 0.000000 -0.000000 143.012000 87.898500 231.649000 -79.142600 39.834500 175.415000 15.735700 0.000005 -0.000001 57.434300 85.937300 -53.766500 8.984550 -0.406207 -0.000000 -0.758361 -4.645320 7.304910 16.377300 -0.000001 -0.000001 7.021960 14.413000 -1.269750 6.456720 -0.000001 -0.000000 10.436600 25.551300 2.025690 12.994200 -0.242716 4.980390 -92.834200 7.994600 -70.406600 5.348090 -0.000007 -0.000001 -66.911000 -3.110320 -4.337630 24.328600 0.000019 0.000005 5.686140 4.171270 -53.867000 22.291600 -0.000001 0.000005 18.658000 5.021930 6.848280 12.994500 -0.242716 -4.980390 88.915400 2.959350 -69.861000 -5.348130 -0.000001 -0.000004 -60.615000 -3.426180 22.010300 -24.328900 0.000322 -0.000009 -0.000999 21.535800 0.000099 -22.291500 -0.000108 -0.000004 10.234600 4.879270 9.794680 -2.192480 -6.469440 -0.000000 -172.484000 5.592840 16.289600 39.081100 -0.000007 -0.000012 0.004453 -0.008023 29.027500 40.985400 -0.000006 -0.000013 9.294900 23.244600 -63.697500 11.754300 -0.000000 0.000003 -0.130006 -0.513639 -38.185300 -2.192510 6.469440 -0.000001 178.285000 -4.899320 154.995000 -39.081100 -0.002282 -0.040193 0.102475 -0.153621 32.846700 -40.985400 0.000008 0.000006 -10.936200 2.679240 -64.602300 -11.754300 -0.000006 -0.000006 -0.000324 0.172948 -9.558350
0.000000 0.000000 0.000000 0.000000 0.000000 -0.000000 147.306000 87.494300 228.742000 -77.636100 37.273200 175.481000 15.735700 0.000005 -0.000001 59.313700 85.794400 -55.002600 8.984550 -0.406207 -0.000000 -0.343807 -4.596210 8.607620 16.377300 -0.000001 -0.000001 6.623130 14.005700 -1.570930 6.456720 -0.000001 -0.000000 11.465100 24.530600 1.234460 12.994200 -0.242716 4.980390 -93.176000 8.940700 -70.351300 5.348090 -0.000007 -0.000001 -67.654000 -2.577140 -2.537340 24.328600 0.000019 0.000005 9.085100 8.964390 -45.760200 22.291600 -0.000001 0.000005 12.415200 5.041150 6.428200 12.994500 -0.242716 -4.980390 88.543100 3.965300 -69.807100 -5.348130 -0.000001 -0.000004 -61.004400 -2.339550 16.144100 -24.328900 0.000322 -0.000009 -0.001212 17.155900 0.000076 -22.291500 -0.000108 -0.000004 12.732100 4.939970 8.572070 -2.192480 -6.469440 -0.000000 -170.026000 5.910980 13.245800 39.081100 -0.000007 -0.000012 0.019359 -0.024874 37.890800 40.985400 -0.000006 -0.000013 7.419720 23.023500 -53.621700 11.754300 -0.000000 0.000003 -0.158773 -0.571783 -40.815600 -2.192510 6.469440 -0.000001 -179.365000 -3.569880 156.813000 -39.081100 -0.002282 -0.040193 0.110109 -0.136482 38.050600 -40.985400 0.000008 0.000006 -12.010200 2.502550 -68.910100 -11.754300 -0.000006 -0.000006 -0.004533 0.224537 -7.459910
0.000000 0.000000 0.000000 0.000000 0.000000 -0.000000 150.913000 87.442300 226.008000 -77.033400 33.319200 176.543000 15.735700 0.000005 -0.000001 59.627000 85.346000 -54.825300 8.984550 -0.406207 -0.000000 0.496275 -5.008990 9.623670 16.377300 -0.000001 -0.000001 6.297980 13.102200 -1.547950 6.456720 -0.000001 -0.000000 11.863000 23.050000 0.192453 12.994200 -0.242716 4.980390 -93.301300 9.434160 -70.612500 5.348090 -0.000007 -0.000001 -68.633300 0.657862 -2.245920 24.328600 0.000019 0.000005 9.966630 15.181100 -33.878100 22.291600 -0.000001 0.000005 6.534030 5.041060 6.429150 12.994500 -0.242716 -4.980390 88.215900 4.836560 -69.724300 -5.348130 -0.000001 -0.000004 -61.571200 -1.738600 9.053740 -24.328900 0.000322 -0.000009 0.018155 12.358700 -0.091228 -22.291500 -0.000108 -0.000004 13.213700 4.988460 7.561590 -2.192480 -6.469440 -0.000000 -167.823000 7.040100 7.336220 39.081100 -0.000007 -0.000012 0.093849 -0.082629 48.636700 40.985400 -0.000006 -0.000013 0.992327 20.894300 -39.798500 11.754300 -0.000000 0.000003 -0.052990 -0.308279 -29.284400 -2.192510 6.469440 -0.000001 -177.490000 0.198927 160.560000 -39.081100 -0.002282 -0.040193 0.122862 -0.141902 40.121500 -40.985400 0.000008 0.000006 -11.000400 2.735150 -72.794100 -11.754300 -0.000006 -0.000006 -0.005977 0.238293 -6.899210
